<?xml version="1.0" encoding="UTF-8" standalone="no"?>
<svg
   version="1.0"
   width="600.000000pt"
   height="327.000000pt"
   viewBox="0 0 600.000000 327.000000"
   preserveAspectRatio="xMidYMid meet"
   id="svg48"
   sodipodi:docname="LecCheck_v3.svg"
   inkscape:version="1.4.3 (0d15f75042, 2025-12-25)"
   xmlns:inkscape="http://www.inkscape.org/namespaces/inkscape"
   xmlns:sodipodi="http://sodipodi.sourceforge.net/DTD/sodipodi-0.dtd"
   xmlns="http://www.w3.org/2000/svg"
   xmlns:svg="http://www.w3.org/2000/svg">
  <defs
     id="defs48" />
  <sodipodi:namedview
     id="namedview48"
     pagecolor="#ffffff"
     bordercolor="#000000"
     borderopacity="0.25"
     inkscape:showpageshadow="2"
     inkscape:pageopacity="0.0"
     inkscape:pagecheckerboard="0"
     inkscape:deskcolor="#d1d1d1"
     inkscape:document-units="pt"
     inkscape:zoom="1.9082569"
     inkscape:cx="399.84135"
     inkscape:cy="176.07692"
     inkscape:window-width="2560"
     inkscape:window-height="1043"
     inkscape:window-x="0"
     inkscape:window-y="0"
     inkscape:window-maximized="1"
     inkscape:current-layer="g48" />
  <g
     transform="matrix(0.1,0,0,-0.1,-0.39302885,328.57211)"
     fill="#000000"
     stroke="none"
     id="g48">
    <path
       d="m 4049,2684 c -238,-43 -436,-168 -609,-384 -94,-119 -156,-213 -290,-443 -56,-98 -106,-174 -110,-170 -4,4 -30,42 -58,84 -74,112 -147,143 -231,99 -33,-16 -121,-104 -121,-120 0,-4 16,-4 36,-2 31,4 40,-1 77,-40 23,-24 51,-62 62,-84 10,-21 44,-84 75,-138 61,-110 113,-156 177,-156 79,0 128,52 238,253 257,469 387,660 580,852 102,102 185,169 283,226 l 67,39 -50,-1 c -28,0 -84,-7 -126,-15 z m 51,-22 c 0,-4 -28,-28 -62,-52 -114,-82 -315,-293 -414,-435 -50,-71 -103,-150 -118,-175 -15,-25 -40,-66 -56,-92 -16,-25 -50,-86 -76,-135 -26,-48 -50,-92 -54,-98 -4,-5 -27,-46 -50,-90 -24,-44 -51,-92 -61,-107 -11,-14 -19,-29 -19,-33 0,-3 -15,-22 -33,-42 -40,-42 -98,-57 -145,-37 -40,16 -74,61 -140,186 -68,126 -117,193 -154,209 -32,13 -33,17 -12,47 23,33 67,52 120,52 45,0 51,-4 95,-50 26,-27 54,-65 63,-84 18,-38 52,-67 70,-60 14,6 30,30 157,244 99,167 156,259 169,270 3,3 14,19 24,35 109,172 361,375 499,402 17,3 34,9 37,13 5,6 120,36 148,39 6,0 12,-2 12,-7 z"
       id="path1" />
    <path
       d="m 2632,2460 c -70,-43 -118,-119 -168,-266 -25,-74 -108,-433 -102,-440 6,-6 118,94 161,145 35,41 47,65 61,128 46,197 101,323 141,323 42,0 20,-132 -46,-269 -81,-171 -173,-271 -375,-408 -157,-106 -213,-158 -254,-234 -75,-142 -22,-269 112,-269 88,1 158,54 234,178 4,7 104,-23 160,-48 33,-15 110,-56 170,-91 223,-132 353,-168 504,-139 80,15 159,55 213,108 52,51 101,126 94,145 -2,7 -11,-2 -20,-19 -23,-45 -82,-93 -157,-128 -55,-26 -80,-31 -161,-34 -70,-3 -112,0 -154,12 -67,20 -81,16 -30,-8 70,-33 185,-43 265,-22 68,18 75,14 18,-9 -74,-30 -191,-30 -326,-1 -34,7 -169,74 -232,114 -86,55 -225,120 -287,133 -63,14 -49,23 -132,-80 -103,-128 -281,-105 -281,37 0,23 5,53 10,67 20,54 80,131 132,171 66,51 215,154 222,154 3,0 14,8 24,18 10,9 48,44 84,78 35,34 75,76 88,95 13,19 27,36 30,39 18,17 90,162 111,225 7,22 17,44 21,50 4,5 8,34 8,65 0,83 -40,114 -88,70 -24,-23 -82,-134 -82,-157 0,-9 -8,-46 -19,-82 -10,-36 -25,-88 -32,-116 -10,-38 -27,-65 -72,-112 -33,-35 -64,-63 -70,-63 -8,0 -7,11 7,86 31,158 110,410 136,434 3,3 13,17 23,32 25,40 77,75 120,82 35,6 43,2 73,-28 33,-33 34,-36 33,-113 -1,-76 -11,-137 -28,-178 -5,-11 -15,-36 -22,-55 -31,-82 -111,-208 -180,-281 -71,-77 -87,-106 -113,-214 -1,-5 -10,-36 -20,-67 -21,-66 -13,-88 33,-88 63,-1 175,-38 321,-107 133,-64 153,-71 221,-89 73,-20 195,-21 248,-2 20,7 38,12 41,13 32,4 114,62 158,112 31,35 57,61 59,59 9,-9 -32,-72 -76,-115 -39,-39 -96,-76 -136,-88 -94,-28 -162,-32 -292,-20 -48,5 -30,-10 28,-22 100,-22 232,-5 321,40 142,72 222,232 197,391 -12,74 -33,106 -23,36 8,-58 -22,-164 -66,-230 -62,-94 -172,-156 -293,-165 -99,-8 -200,19 -368,97 -170,79 -229,99 -307,107 -52,5 -62,9 -57,22 4,9 20,66 38,126 29,105 33,113 92,175 107,114 189,254 231,395 23,81 24,209 1,252 -33,61 -113,81 -175,43 z"
       id="path5" />
    <path
       d="m 2285,1568 c -11,-6 -40,-27 -65,-47 -126,-99 -172,-210 -107,-256 33,-23 53,-18 98,25 33,31 40,45 37,64 -4,18 1,30 16,40 25,16 69,123 64,156 -4,28 -16,33 -43,18 z m 8,-76 c -23,-64 -31,-75 -73,-102 -44,-28 -80,-60 -67,-60 2,0 21,7 42,16 20,8 39,14 41,12 7,-8 -56,-76 -75,-81 -57,-15 -71,60 -24,127 25,35 173,169 180,163 1,-1 -10,-35 -24,-75 z"
       id="path37" />
  </g>
</svg>
